<?xml version="1.0" encoding="iso-8859-1"?>
<!-- Generator: Adobe Illustrator 19.0.0, SVG Export Plug-In . SVG Version: 6.00 Build 0)  -->
<svg version="1.1" id="Capa_1" xmlns="http://www.w3.org/2000/svg" xmlns:xlink="http://www.w3.org/1999/xlink" x="0px" y="0px"
	 viewBox="0 0 512 512" style="enable-background:new 0 0 512 512;" xml:space="preserve">
<g>
	<g>
		<g>
			<path d="M512,268.264c0-22.837-11.594-44.148-30.189-57.526c1.457-5.524,2.189-11.06,2.189-16.572
				c0-31.372-20.079-58.134-48.03-68.055c0.085-1.405,0.126-2.829,0.126-4.277c0-35.64-26.029-65.314-60.075-71.013
				c-3.487-11.727-9.869-22.391-18.7-31C344.1,6.933,326.584,0,308,0c-20.429,0-38.883,8.566-52,22.279
				C242.883,8.566,224.429,0,204,0c-18.584,0-36.1,6.933-49.321,19.822c-8.831,8.608-15.212,19.272-18.7,31
				c-0.532,0.089-1.057,0.201-1.585,0.302c-0.421,0.08-0.843,0.153-1.261,0.24c-0.802,0.168-1.596,0.358-2.388,0.552
				c-0.307,0.075-0.618,0.14-0.924,0.22c-1.094,0.284-2.178,0.592-3.252,0.925c-0.209,0.065-0.412,0.141-0.62,0.207
				c-0.861,0.276-1.717,0.562-2.564,0.869c-0.378,0.137-0.749,0.289-1.124,0.432c-0.669,0.256-1.336,0.513-1.995,0.788
				c-0.414,0.173-0.822,0.357-1.232,0.537c-0.611,0.269-1.22,0.54-1.822,0.825c-0.42,0.199-0.836,0.405-1.251,0.612
				c-0.581,0.289-1.159,0.584-1.731,0.888c-0.415,0.22-0.826,0.445-1.236,0.673c-0.565,0.314-1.123,0.637-1.678,0.966
				c-0.399,0.237-0.798,0.473-1.192,0.717c-0.56,0.347-1.112,0.705-1.662,1.067c-0.373,0.245-0.747,0.487-1.115,0.738
				c-0.575,0.394-1.14,0.802-1.703,1.212c-0.327,0.238-0.659,0.47-0.982,0.713c-0.666,0.502-1.319,1.022-1.967,1.546
				c-0.206,0.166-0.418,0.325-0.621,0.493c-0.845,0.699-1.673,1.417-2.484,2.153c-0.215,0.195-0.421,0.4-0.633,0.598
				c-0.592,0.549-1.18,1.102-1.753,1.671c-0.291,0.289-0.571,0.588-0.858,0.882c-0.48,0.493-0.959,0.987-1.425,1.494
				c-0.304,0.33-0.599,0.668-0.896,1.003c-0.432,0.488-0.861,0.978-1.281,1.478c-0.298,0.356-0.591,0.716-0.882,1.077
				c-0.402,0.498-0.798,1.001-1.187,1.51c-0.284,0.371-0.564,0.745-0.841,1.122c-0.381,0.519-0.753,1.044-1.12,1.574
				c-0.263,0.379-0.525,0.757-0.781,1.14c-0.367,0.552-0.722,1.112-1.075,1.675c-0.234,0.374-0.472,0.745-0.7,1.124
				c-0.368,0.612-0.72,1.235-1.07,1.859c-0.191,0.341-0.39,0.677-0.576,1.021c-0.441,0.816-0.861,1.643-1.271,2.477
				c-0.079,0.161-0.166,0.318-0.244,0.479c-0.481,0.998-0.937,2.009-1.373,3.032c-0.132,0.31-0.25,0.626-0.377,0.938
				c-0.294,0.719-0.586,1.44-0.857,2.171c-0.149,0.402-0.285,0.81-0.428,1.215c-0.229,0.653-0.456,1.306-0.667,1.967
				c-0.14,0.44-0.27,0.884-0.402,1.327c-0.19,0.639-0.375,1.279-0.548,1.925c-0.123,0.46-0.239,0.923-0.353,1.386
				c-0.158,0.643-0.308,1.288-0.448,1.938c-0.102,0.47-0.2,0.94-0.293,1.413c-0.129,0.659-0.245,1.322-0.356,1.987
				c-0.078,0.468-0.157,0.936-0.226,1.407c-0.101,0.694-0.185,1.393-0.267,2.093c-0.052,0.448-0.11,0.895-0.154,1.345
				c-0.075,0.775-0.128,1.556-0.178,2.338c-0.025,0.382-0.06,0.761-0.078,1.145c-0.057,1.168-0.089,2.342-0.089,3.524
				c0,1.131,0.034,2.258,0.086,3.382c0.008,0.173,0.014,0.347,0.024,0.52c0.009,0.176,0.013,0.354,0.024,0.53
				C48.079,136.16,28,162.862,28,194.167c0,5.512,0.733,11.048,2.189,16.572C11.594,224.116,0,245.426,0,268.264
				c0,17.098,6.233,33.342,17.117,46.13C6.23,327.083,0,343.333,0,360.573c0,35.194,25.385,64.572,58.804,70.788
				c5.246,34.574,35.169,61.152,71.185,61.152c7.09,0,14.083-1.029,20.768-3.027C164.098,504.297,183.264,512,204,512
				c20.429,0,38.883-8.566,52-22.279C269.117,503.434,287.571,512,308,512c20.736,0,39.902-7.703,53.244-22.514
				c6.685,1.999,13.678,3.027,20.768,3.027c35.865,0,65.689-26.357,71.118-60.72C486.583,425.568,512,396,512,360.573
				c0-17.24-6.23-33.49-17.117-46.179C505.767,301.605,512,285.361,512,268.264z M454.775,332.745
				c10.786,5.607,17.225,16.01,17.225,27.828c0,17.88-14.355,32.427-32,32.427c-17.645,0-32-14.355-32-32h-40
				c0,30.218,18.721,56.13,45.166,66.793c-3.305,14.148-16.014,24.721-31.155,24.721c-5.932,0-11.673-1.588-16.604-4.592
				L360.614,445h-18.876l-5.562,10.929C330.735,466.618,320.203,472,308,472c-17.645,0-32-13.355-32-31v-38.387l-44.393,54.54
				c-1.666,2.837-3.751,5.398-6.178,7.591l-0.749,0.92c-0.008-0.012-0.095-0.034-0.238-0.065C218.894,470.217,211.767,472,204,472
				c-12.203,0-22.735-5.382-28.175-16.071L170.263,445h-18.876l-4.794,2.921c-4.927,3.002-10.664,4.59-16.592,4.592v-0.461
				c-17.606,0-31.933-14.292-31.997-31.883c0.018-1.594,0.147-3.218,0.41-4.838l0.373-2.301
				c3.21-14.277,15.982-24.979,31.214-24.979v-40c-29.573,0-55.029,17.927-66.097,43.481C50.166,387.938,40,375.421,40,360.573
				c0-11.817,6.439-22.221,17.226-27.828L68,327.144v-25.051l-10.522-5.663C46.697,290.628,40,279.835,40,268.264
				c0-14.79,11.012-25.473,21.924-29.5L75,233.938v-20.102l-2.5-4.519c-3.028-5.473-4.5-10.429-4.5-15.151
				c0-13.985,9.021-25.894,21.546-30.237c13.091,18.097,34.365,29.904,58.358,29.904v-40c-17.645,0-32-14.355-32-32s14.355-32,32-32
				c0.729,0,1.569,0.039,2.569,0.117l9.559,0.754l12.546-13.322l0.393-7.309C173.898,52.834,187.238,40,204,40
				c17.645,0,32,14.189,32,31.834v39.051l46.302-58.096C288.139,44.934,297.484,40,308,40c16.762,0,30.102,12.834,31.029,30.074
				l0.393,7.309l12.546,13.323l9.56-0.754c1-0.079,1.84-0.117,2.569-0.117c17.645,0,32,14.355,32,32
				c0,3.979-0.678,7.052-2.501,11.339l-1.596,3.75V162h20c17.645,0,32,14.43,32,32.166c0,4.722-1.472,9.678-4.5,15.152l-2.5,4.519
				v20.101l13.076,4.826c10.913,4.027,21.924,14.711,21.924,29.5c0,11.572-6.697,22.365-17.478,28.166L444,302.092v25.051
				L454.775,332.745z" class="fh5co-project-item" fill="#5059AB"/>
			<path d="M308.967,77.745L117.485,318h115l-35.484,124.195L390.067,205H275.032L308.967,77.745z M305.933,245l-26.86,33h-78.558
				l26.301-33H305.933z" class="fh5co-project-item" fill="#5059AB"/>
		</g>
	</g>
</g>
<g>
</g>
<g>
</g>
<g>
</g>
<g>
</g>
<g>
</g>
<g>
</g>
<g>
</g>
<g>
</g>
<g>
</g>
<g>
</g>
<g>
</g>
<g>
</g>
<g>
</g>
<g>
</g>
<g>
</g>
</svg>
