<?xml version="1.0" encoding="UTF-8"?>
<svg width="343px" height="281px" viewBox="0 0 343 281" version="1.1" xmlns="http://www.w3.org/2000/svg" xmlns:xlink="http://www.w3.org/1999/xlink">
    <!-- Generator: Sketch 49.2 (51160) - http://www.bohemiancoding.com/sketch -->
    <title>Circle Flow</title>
    <desc>Created with Sketch.</desc>
    <defs></defs>
    <g id="Page-1" stroke="none" stroke-width="1" fill="none" fill-rule="evenodd">
        <path d="M275.203102,203.718958 C274.71876,203.495493 274.143984,203.580274 273.74087,203.936677 L266.496003,210.444266 L259.955358,203.734033 L266.431329,196.254904 C266.783433,195.848195 266.868959,195.287672 266.649794,194.794734 C266.430628,194.301796 265.946285,194 265.413789,194 L265.023571,194 C261.020996,194 254.110953,194.344209 251.026073,197.473676 L250.403752,198.091658 C247.112577,201.449631 246.528369,206.956237 248.262355,211.142048 L231.677199,228.069255 C229.440934,230.336443 229.440934,234.01203 231.677199,236.279913 L233.701493,238.332232 C234.819603,239.465473 236.285522,240.032444 237.751436,240.032444 C239.21665,240.032444 240.682569,239.465473 241.799978,238.332232 L258.629456,221.367658 C260.22116,222.227829 262.402076,222.789761 264.233773,222.789761 C267.169949,222.789761 269.953065,221.605509 272.072154,219.454769 L272.685838,218.833194 C276.036661,215.435663 275.984909,208.175678 275.999995,204.981526 C276.001442,204.438282 275.688856,203.944599 275.203101,203.718956 L275.203102,203.718958 Z M288.36,166.316 C289.559,166.316 290.758,165.994 291.812,165.347 L324.92,145.059 C322.639,219.738 261.876,279.692 186.878,280.684 L165.144,245.214 C165.023,245.018 165.026,244.766 165.151,244.572 L187.479,210.145 C223.131,208.906 252.041,181.205 255.175,146.067 L284.767,165.259 C285.853,165.963 287.105,166.316 288.36,166.316 Z M270.680269,216.881446 C272.465235,215.071307 273.01782,210.938689 273.192425,208.093038 L267.32654,213.376143 C266.782551,213.858337 265.965491,213.82816 265.460319,213.307898 L257.1275,204.7595 C256.625221,204.244282 256.601493,203.423625 257.072895,202.878935 L262.343784,196.791723 C259.660553,196.956986 254.814344,197.516762 252.948164,199.410267 L252.328736,200.035439 C250.152822,202.25594 249.748964,206.128409 250.44168,208.930199 L250.442382,208.930199 C250.687423,209.921864 251.098477,210.879754 251.702114,211.758613 L233.702046,230.121571 C232.586082,231.254071 232.586082,233.095819 233.702791,234.228315 L235.726339,236.279888 C236.267436,236.828879 236.986731,237.130677 237.751334,237.130677 C238.515936,237.130677 239.23453,236.828876 239.774922,236.279888 L258.196805,217.703508 C258.943424,218.383284 259.777721,218.921529 260.675964,219.294466 C261.669775,219.708369 263.141439,219.913895 264.233715,219.913895 C266.441951,219.913895 268.541683,219.133506 270.147028,217.50443 L270.680269,216.881449 Z" id="Combined-Shape" fill="#5059AB" fill-rule="nonzero"></path>
        <path d="M244.052,143.729 C242.051,173.686 217.783,197.539 187.647,198.869 L187.647,204.662 C220.982,203.322 247.845,176.887 249.859,143.729 L244.052,143.729" id="Fill-357" fill="#5059AB"></path>
        <path d="M244.15,137.729 L249.943,137.729 C248.914,103.757 221.836,76.344 187.994,74.805 L187.994,80.598 C218.637,82.127 243.127,106.956 244.15,137.729" id="Fill-358" fill="#5059AB"></path>
        <path d="M240.996541,62.5289798 L262.324221,74.1434054 C262.538992,74.2597561 262.774585,74.3186767 263.011628,74.3186767 C263.245776,74.3186767 263.479922,74.261203 263.693248,74.1462991 L285.245657,62.5318735 C285.715401,62.2790497 286.007724,61.785591 286.000532,61.2511847 C285.993342,60.7153777 285.690234,60.2298048 285.214749,59.9870205 L263.885722,49.1555093 C263.479196,48.9493748 262.999372,48.9479283 262.589249,49.1526158 L241.038995,59.9841271 C240.562064,60.2240181 240.256063,60.7095888 240.247426,61.2439951 C240.238788,61.7784015 240.528263,62.2740077 240.996559,62.5289801 L240.996541,62.5289798 Z M263.232078,52.0457846 L281.465317,61.3056762 L263.015834,71.2479693 L244.781833,61.3186051 L263.232078,52.0457846 Z M284.96814,70.5426282 L280.704597,68.3777355 L277.626828,70.0376395 L281.218178,71.861327 L262.769414,81.8029018 L244.534694,71.8735376 L248.364487,69.9485785 L245.29531,68.276446 L240.791757,70.5390144 C240.314826,70.7789053 240.008825,71.264476 240.000188,71.7988824 C239.991551,72.3332887 240.281025,72.828895 240.749321,73.0838674 L262.076912,84.6982929 C262.291682,84.8146437 262.527276,84.8735203 262.764319,84.8735203 C262.998466,84.8735203 263.232613,84.8160466 263.445939,84.7011427 L284.998348,73.0867171 C285.468092,72.8338933 285.760414,72.3404346 285.753223,71.8060283 C285.746778,71.2702213 285.44367,70.7846484 284.968185,70.5426093 L284.96814,70.5426282 Z M255.457,139.099 C255.133,102.306 226.623,72.262 190.466,69.482 L209.523,40.097 C210.902,37.972 210.936,35.205 209.61,33.048 L189.8,0.798 C264.21,3.31 323.889,63.882 324.968,138.647 L324.677,138.172 L288.675,160.232 C288.478,160.354 288.226,160.351 288.032,160.226 L255.457,139.099 Z M284.968589,80.598363 L280.929856,78.6130827 L277.852087,80.2729867 L281.219327,81.9171067 L262.769845,91.8586815 L244.535125,81.9293173 L248.095567,80.3189515 L245.02639,78.646819 L240.792175,80.5954944 C240.315244,80.8353854 240.009243,81.3209561 240.000606,81.8553624 C239.991968,82.3897687 240.281443,82.885375 240.749739,83.1403474 L262.077329,94.754773 C262.2921,94.8711237 262.527693,94.9300003 262.764736,94.9300003 C262.998884,94.9300003 263.23303,94.8725266 263.446356,94.7576227 L284.998765,83.1431971 C285.468509,82.8903733 285.760832,82.3969146 285.75364,81.8625083 C285.747196,81.3259561 285.444088,80.8403832 284.968602,80.5983441 L284.968589,80.598363 Z" id="Combined-Shape" fill="#5059AB" fill-rule="nonzero"></path>
        <path d="M181.994,80.598 L181.994,74.805 C148.003,76.35 120.835,104 120.033,138.18 L125.826,138.18 C126.625,107.199 151.202,82.135 181.994,80.598" id="Fill-360" fill="#5059AB"></path>
        <path d="M108.562505,80.303841 L108.562505,67.4374997 L95.694726,67.4374997 C96.3689044,74.2296859 101.770319,79.6296536 108.562505,80.303841 Z M95.694726,64.5625003 L108.562505,64.5625003 L108.562505,51.696159 C101.770319,52.3703374 96.3689134,57.7703141 95.694726,64.5625003 Z M111.437504,51.696159 L111.437504,64.5625003 L124.305283,64.5625003 C123.631105,57.7703141 118.22969,52.3703464 111.437504,51.696159 Z M111.437504,67.4374997 L111.437504,80.303841 C118.22969,79.6296626 123.631096,74.2296859 124.305283,67.4374997 L111.437504,67.4374997 Z M183.439,69.29 C146.296,70.097 116.236,99.619 114.596,136.552 L83.91,116.65 C81.785,115.272 79.019,115.239 76.833,116.582 L45.059,136.608 C47.206,61.94 107.816,1.93 182.72,0.736 L204.498,36.189 C204.618,36.386 204.615,36.638 204.49,36.832 L183.439,69.29 Z M131.5625,67.4374997 C132.356005,67.4374997 133,66.7935043 133,66 C133,65.2064957 132.356005,64.5625003 131.5625,64.5625003 L127.185296,64.5625003 C126.493858,56.1840332 119.815953,49.5118692 111.437486,48.8190034 L111.437486,44.4374997 C111.437486,43.6439954 110.793491,43 109.999987,43 C109.206482,43 108.562487,43.6439954 108.562487,44.4374997 L108.562487,48.8190034 C100.184738,49.5118782 93.5061237,56.1840332 92.8139586,64.5625003 L88.4374997,64.5625003 C87.6439954,64.5625003 87,65.2064957 87,66 C87,66.7935043 87.6439954,67.4374997 88.4374997,67.4374997 L92.8139586,67.4374997 C93.5061147,75.8166856 100.184738,82.4881308 108.562487,83.1809966 L108.562487,87.5625003 C108.562487,88.3560046 109.206482,89 109.999987,89 C110.793491,89 111.437486,88.3560046 111.437486,87.5625003 L111.437486,83.1809966 C119.815953,82.4881218 126.493876,75.8166856 127.185296,67.4374997 L131.5625,67.4374997 Z" id="Combined-Shape" fill="#5059AB"></path>
        <path d="M125.971,144.18 L120.163,144.18 C122.377,176.896 148.783,202.977 181.647,204.645 L181.647,198.836 C151.984,197.182 128.167,173.694 125.971,144.18" id="Fill-362" fill="#5059AB"></path>
        <path d="M114.636,143.729 C116.625,179.266 144.938,207.756 180.394,210.042 L160.118,241.307 C158.74,243.431 158.706,246.197 160.029,248.352 L179.791,280.602 C105.881,277.898 46.598,217.912 45.032,143.718 L80.002,121.676 C80.199,121.555 80.451,121.558 80.645,121.684 L114.636,143.729 Z M120.406269,190 C118.421063,190 116.812563,191.609291 116.812563,193.593751 C116.812563,194.001295 116.895212,194.385805 117.019537,194.75093 L108.259409,202.294214 C107.644891,201.804768 106.877971,201.500009 106.031301,201.500009 C105.054515,201.500009 104.171166,201.892461 103.524273,202.524964 L96.6623643,199.089316 C96.5286952,197.225583 94.9913059,195.750007 93.0937918,195.750007 C91.1093313,195.750007 89.5000405,197.359297 89.5000405,199.343758 C89.5000405,199.88712 89.6294102,200.396704 89.8450267,200.85816 L82.8487117,208.925413 C82.4562592,208.778803 82.0372202,208.687511 81.5937513,208.687511 C79.6092908,208.687511 78,210.296802 78,212.281262 C78,214.265723 79.6092908,215.875014 81.5937513,215.875014 C83.5782118,215.875014 85.1875026,214.265723 85.1875026,212.281262 C85.1875026,211.803312 85.0897624,211.348343 84.9201207,210.931454 L92.0299983,202.759264 C92.3685355,202.864198 92.7207173,202.937503 93.0937352,202.937503 C94.1395303,202.937503 95.0724501,202.48324 95.7293879,201.769534 L102.441078,205.134727 C102.464811,207.099795 104.060418,208.687505 106.031231,208.687505 C108.016437,208.687505 109.624982,207.078215 109.624982,205.093754 C109.624982,205.029793 109.609891,204.970131 109.606294,204.906872 L118.95436,196.876275 C119.39928,197.073203 119.888025,197.187482 120.406249,197.187482 C122.391455,197.187482 124,195.578937 124,193.593731 C124,191.60927 122.391455,189.999979 120.406271,190.000002 Z" id="Combined-Shape" fill="#5059AB" fill-rule="nonzero"></path>
        <text id="Plan" font-family="Helvetica" font-size="24" font-weight="normal" fill="#5059AB">
            <tspan x="296" y="23">Plan</tspan>
        </text>
        <text id="Do" font-family="Helvetica" font-size="24" font-weight="normal" fill="#5059AB">
            <tspan x="296" y="268">Do</tspan>
        </text>
        <text id="Check" font-family="Helvetica" font-size="24" font-weight="normal" fill="#5059AB">
            <tspan x="5.97265625" y="268">Check</tspan>
        </text>
        <text id="Decide" font-family="Helvetica" font-size="24" font-weight="normal" fill="#5059AB">
            <tspan x="-0.70703125" y="23">Decide</tspan>
        </text>
    </g>
</svg>