<?xml version="1.0" encoding="iso-8859-1"?>
<!-- Generator: Adobe Illustrator 19.0.0, SVG Export Plug-In . SVG Version: 6.00 Build 0)  -->
<svg version="1.1" id="Layer_1" xmlns="http://www.w3.org/2000/svg" xmlns:xlink="http://www.w3.org/1999/xlink" x="0px" y="0px"
	 viewBox="0 0 494.225 494.225" style="enable-background:new 0 0 494.225 494.225;" xml:space="preserve">
<g>
	<g>
		<path d="M370.976,123.483c-4.604-4.604-11.539-5.961-17.537-3.427l-157.963,66.686c-3.84,1.621-6.896,4.676-8.517,8.516
			l-66.702,157.963c-2.533,5.998-1.179,12.933,3.425,17.537c3.062,3.062,7.155,4.687,11.318,4.687c2.096,0,4.21-0.412,6.219-1.259
			L299.182,307.5c3.84-1.621,6.896-4.677,8.518-8.517l66.702-157.963C376.934,135.022,375.58,128.087,370.976,123.483z
			 M280.748,280.547l-115.692,48.84l48.853-115.692l115.692-48.841L280.748,280.547z" fill="#5059AB"/>
	</g>
</g>
<g>
	<g>
		<path d="M247.105,0C110.855,0,0.008,110.855,0.008,247.113s110.847,247.112,247.097,247.112
			c136.258,0,247.112-110.854,247.112-247.112S383.363,0,247.105,0z M247.105,462.225c-118.605,0-215.097-96.499-215.097-215.112
			C32.008,128.499,128.5,32,247.105,32c118.613,0,215.112,96.499,215.112,215.113C462.217,365.726,365.718,462.225,247.105,462.225z
			" fill="#5059AB"/>
	</g>
</g>
<g>
	<g>
		<path d="M303.457,280.631l-90.444-90.461c-6.248-6.249-16.378-6.25-22.627-0.002c-6.249,6.248-6.25,16.378-0.002,22.627
			l90.445,90.461c3.124,3.125,7.218,4.688,11.314,4.688c4.095,0,8.189-1.561,11.312-4.686
			C309.704,297.011,309.705,286.88,303.457,280.631z" fill="#5059AB"/>
	</g>
</g>
<g>
</g>
<g>
</g>
<g>
</g>
<g>
</g>
<g>
</g>
<g>
</g>
<g>
</g>
<g>
</g>
<g>
</g>
<g>
</g>
<g>
</g>
<g>
</g>
<g>
</g>
<g>
</g>
<g>
</g>
</svg>
