<?xml version="1.0" encoding="UTF-8"?>
<svg version="1.1" id="Capa_1" xmlns="http://www.w3.org/2000/svg" xmlns:xlink="http://www.w3.org/1999/xlink" 
     viewBox="0 -64 640 512" xml:space="preserve">
    <!-- Generator: Sketch 49.3 (51167) - http://www.bohemiancoding.com/sketch -->
    <title>SpiralUp! Service Logo Projektleitung</title>
    <desc>Copied from FA public</desc>
    <defs></defs>
    <g>
        <path d="M128 352c-26.5 0 -48 21.5 -48 48s21.5 48 48 48s48 -21.5 48 -48s-21.5 -48 -48 -48zM512 352c-26.5 0 -48 21.5 -48 48s21.5 48 48 48s48 -21.5 48 -48s-21.5 -48 -48 -48zM637.7 -20.0996c6.59961 -16.4004 -1.40039 -35 -17.7998 -41.6006
c-3.90039 -1.59961 -7.90039 -2.2998 -11.9004 -2.2998c-12.7002 0 -24.7002 7.59961 -29.7002 20.0996l-27.7002 69.2002l2 18.2002l41.1006 46.4004zM603.5 189.7c4.59961 -20 -0.799805 -41.2002 -14.4004 -56.7002l-67.1992 -75.9004l-10.1006 -92.5996
c-1.7998 -16.4004 -15.7002 -28.5 -31.7998 -28.5c-1.2002 0 -2.2998 0.0996094 -3.5 0.200195c-17.5 1.89941 -30.2002 17.7002 -28.2998 35.2998l10.0996 92.7998c1.5 13 6.90039 25.1006 15.6006 35l43.2998 49l-17.6006 70.2998l-6.7998 -20.3994
c-4.09961 -12.6006 -11.8994 -23.4004 -24.5 -32.6006l-51.0996 -32.5c-4.60059 -2.89941 -12.1006 -4.59961 -17.2002 -5h-160c-5.09961 0.400391 -12.5996 2.10059 -17.2002 5l-51.0996 32.5c-12.6006 9.2002 -20.4004 20.1006 -24.5 32.6006l-6.7998 20.3994
l-17.6006 -70.2998l43.2998 -49c8.7002 -9.89941 14.1006 -22 15.6006 -35l10.0996 -92.7998c1.90039 -17.5996 -10.7002 -33.4004 -28.2998 -35.2998c-1.2002 -0.100586 -2.2998 -0.200195 -3.5 -0.200195c-16.2002 0 -30 12.2002 -31.7998 28.5l-10.1006 92.5996
l-67.1992 75.9004c-13.7002 15.5 -19 36.7002 -14.4004 56.7002l18.4004 80.2002c4.59961 20 18.5996 36.7998 37.5 44.8994c18.5 8 38.8994 6.7002 56.0996 -3.2998c22.7002 -13.4004 39.7998 -34.4004 48.0996 -59.4004l11.3008 -33.8994l16.0996 -10.2002v96
c0 8.7998 7.2002 16 16 16h160c8.7998 0 16 -7.2002 16 -16v-96l16 10.2002l11.2998 33.8994c8.40039 24.9004 25.4004 46 48.1006 59.4004c17.0996 10 37.5996 11.2998 56.0996 3.2998c18.9004 -8.09961 32.9004 -24.8994 37.5 -44.8994zM46.2998 89.9004l41.1006 -46.4004
l2 -18.2002l-27.7002 -69.2002c-6.5 -16.0996 -24.7998 -24.3994 -41.6006 -17.7998c-16.3994 6.60059 -24.3994 25.2002 -17.7998 41.6006z" fill="#5059AB" transform="translate(320, 192) rotate(180.000000) translate(-320, -192)"/>
    </g>
</svg>