<?xml version="1.0" encoding="UTF-8"?>
<svg version="1.1" id="Capa_1" xmlns="http://www.w3.org/2000/svg" xmlns:xlink="http://www.w3.org/1999/xlink" 
     viewBox="0 -32 512 448" xml:space="preserve">
    <!-- Generator: Sketch 49.3 (51167) - http://www.bohemiancoding.com/sketch -->
    <title>SpiralUp! Service Logo Evaluierung</title>
    <desc>Copied from FA public</desc>
    <defs></defs>
    <g>
        <path d="M332.8 128c-6.39941 0 -12.7998 6.40039 -12.7998 12.7998v134.4c0 6.39941 6.40039 12.7998 12.7998 12.7998h38.4004c6.39941 0 12.7998 -6.40039 12.7998 -12.7998v-134.4c0 -6.39941 -6.40039 -12.7998 -12.7998 -12.7998h-38.4004zM428.8 128
c-6.39941 0 -12.7998 6.40039 -12.7998 12.7998v230.4c0 6.39941 6.40039 12.7998 12.7998 12.7998h38.4004c6.39941 0 12.7998 -6.40039 12.7998 -12.7998v-230.4c0 -6.39941 -6.40039 -12.7998 -12.7998 -12.7998h-38.4004zM140.8 128
c-6.39941 0 -12.7998 6.40039 -12.7998 12.7998v70.4004c0 6.39941 6.40039 12.7998 12.7998 12.7998h38.4004c6.39941 0 12.7998 -6.40039 12.7998 -12.7998v-70.4004c0 -6.39941 -6.40039 -12.7998 -12.7998 -12.7998h-38.4004zM236.8 128
c-6.39941 0 -12.7998 6.40039 -12.7998 12.7998v198.4c0 6.39941 6.40039 12.7998 12.7998 12.7998h38.4004c6.39941 0 12.7998 -6.40039 12.7998 -12.7998v-198.4c0 -6.39941 -6.40039 -12.7998 -12.7998 -12.7998h-38.4004zM496 64c8.83984 0 16 -7.16016 16 -16v-32
c0 -8.83984 -7.16016 -16 -16 -16h-464c-17.6699 0 -32 14.3301 -32 32v336c0 8.83984 7.16016 16 16 16h32c8.83984 0 16 -7.16016 16 -16v-304h432z" fill="#5059AB" transform="translate(320, 192) scale(1, -1) translate(-320, -192)"/>
    </g>
</svg>