<?xml version="1.0" encoding="UTF-8"?>
<svg version="1.1" id="Capa_1" xmlns="http://www.w3.org/2000/svg" xmlns:xlink="http://www.w3.org/1999/xlink" 
     viewBox="0 -32 640 448" xml:space="preserve">
    <!-- Generator: Sketch 49.3 (51167) - http://www.bohemiancoding.com/sketch -->
    <title>SpiralUp! Service Logo Co Product Owner</title>
    <desc>Copied from FA public</desc>
    <defs></defs>
    <g>
        <path d="M192 192c-61.9004 0 -112 50.0996 -112 112s50.0996 112 112 112s112 -50.0996 112 -112s-50.0996 -112 -112 -112zM268.8 160c63.6006 0 115.2 -51.5996 115.2 -115.2v-28.7998c0 -26.5 -21.5 -48 -48 -48h-288c-26.5 0 -48 21.5 -48 48v28.7998
c0 63.6006 51.5996 115.2 115.2 115.2h8.2998c20.9004 -10 43.9004 -16 68.5 -16s47.7002 6 68.5 16h8.2998zM480 192c-53 0 -96 43 -96 96s43 96 96 96s96 -43 96 -96s-43 -96 -96 -96zM528 160c61.9004 0 112 -50.0996 112 -112c0 -26.5 -21.5 -48 -48 -48h-176.6
c0.0996094 2.09961 0.599609 4.2002 0.599609 6.40039v38.3994c0 38.6006 -15.2998 73.5 -39.7002 99.7998c16.5 9.5 35.2998 15.4004 55.7002 15.4004h3.7998c13.9004 -4.7998 28.6006 -8 44.2002 -8s30.2998 3.2002 44.2002 8h3.7998z" fill="#5059AB" transform="translate(320, 192) rotate(180.000000) translate(-320, -192)"/>
    </g>
</svg>