<?xml version="1.0" encoding="UTF-8"?>
<svg version="1.1" id="Capa_1" xmlns="http://www.w3.org/2000/svg" xmlns:xlink="http://www.w3.org/1999/xlink" 
     viewBox="64 -64 640 512" xml:space="preserve">
    <!-- Generator: Sketch 49.3 (51167) - http://www.bohemiancoding.com/sketch -->
    <title>SpiralUp! Service Logo Lösungsdesign</title>
    <desc>Copied from FA public</desc>
    <defs></defs>
    <g>
        <path d="M12.4102 299.98c-16.5498 7.50977 -16.5498 32.5293 0 40.0391l232.95 105.671c2.79883 1.2793 7.56738 2.31738 10.6445 2.31738s7.84668 -1.03809 10.6455 -2.31738l232.93 -105.681c16.5498 -7.50977 16.5498 -32.5195 0 -40.0293l-232.94 -105.671
c-6.7998 -3.08984 -14.4893 -3.08984 -21.29 0zM499.59 211.7c16.5498 -7.5 16.5498 -32.5 0 -40l-232.95 -105.59c-6.7998 -3.08008 -14.4893 -3.08008 -21.29 0l-232.939 105.59c-16.5498 7.5 -16.5498 32.5 0 40l58.0996 26.3301l161.63 -73.2705
c7.57031 -3.42969 15.5908 -5.16992 23.8604 -5.16992s16.2998 1.74023 23.8604 5.16992l161.64 73.2705zM499.59 83.9004c16.5498 -7.5 16.5498 -32.5 0 -40l-232.95 -105.591c-6.7998 -3.0791 -14.4893 -3.0791 -21.29 0l-232.939 105.591
c-16.5498 7.5 -16.5498 32.5 0 40l57.8799 26.2295l161.85 -73.3701c7.57031 -3.42969 15.5908 -5.16992 23.8604 -5.16992s16.2998 1.74023 23.8604 5.16992l161.859 73.3701z" fill="#5059AB" transform="translate(320, 192) rotate(180.000000) translate(-320, -192)"/>
    </g>
</svg>