<?xml version="1.0" encoding="utf-8"?>
<!-- Generator: Adobe Illustrator 23.0.1, SVG Export Plug-In . SVG Version: 6.00 Build 0)  -->
<svg version="1.1" id="Layer_1" xmlns="http://www.w3.org/2000/svg" xmlns:xlink="http://www.w3.org/1999/xlink" x="0px" y="0px"
	 viewBox="0 0 300 150" style="enable-background:new 0 0 300 150;" xml:space="preserve">
<style type="text/css">
	.st0{fill:#0068A9;}
	.st1{fill:#414042;}
</style>
<g>
	<g>
		<g>
			<path class="st0" d="M16.9,19.2C6,33.1,0.1,51,0.1,72.5c0,21.2,6.2,40.5,16.9,53.5l7.6-6c-7.3-13.7-11.5-29.9-11.5-47.6
				c0-17.3,3.9-33.5,11.4-47.4L16.9,19.2z"/>
		</g>
		<g>
			<path class="st1" d="M56.8,80c0.6,0.5,0.8,1.4,0.8,2.5c0,1.3-0.4,2.1-1.2,2.5c-0.8,0.4-2.4,0.6-4.8,0.6c-1.7,0-7.6-0.1-17.5-0.4
				L33.4,95c5.8,1.4,11.9,2.2,18.3,2.2c7.4,0,12.5-1.1,15.3-3.2c2.8-2.1,4.2-6,4.2-11.7c0-3.8-0.8-6.8-2.5-9.1
				c-1.6-2.3-4.5-4.3-8.5-5.9l-9.2-3.5c-1.8-0.6-3.1-1.2-3.8-1.8c-0.7-0.6-1-1.5-1-2.6c0-1.3,0.4-2.1,1.2-2.5
				c0.8-0.4,2.4-0.6,4.7-0.6c2.6,0,8.1,0.1,16.7,0.2l0.9-8.9c-4.6-1.5-10.4-2.2-17.4-2.2c-7.3,0-12.4,1-15.2,2.9
				c-2.8,2-4.3,5.7-4.3,11.3c0,3.7,0.8,6.7,2.5,9c1.6,2.3,4.4,4.2,8.3,5.8l10,4C55.2,79,56.2,79.5,56.8,80"/>
		</g>
	</g>
	<g>
		<polygon class="st1" points="116.7,46.2 77.4,46.2 77.4,56.7 90.2,56.7 90.2,96.2 103.9,96.2 103.9,56.7 116.7,56.7 		"/>
	</g>
	<g>
		<g>
			<path class="st1" d="M166.2,46.2h-14l-6.8,16.9c-0.4,1.1-1,3.4-1.7,6.7h-0.9c-0.5-3-1-5.3-1.7-6.7l-6.8-16.9h-14l16.1,34v15.9
				h13.6v-16L166.2,46.2z"/>
		</g>
		<g>
			<path class="st1" d="M199.7,61.4c0,2.4-0.4,4-1.3,4.8c-0.9,0.8-2.6,1.2-5.2,1.2h-6.5v-12h6.5c2.6,0,4.3,0.4,5.2,1.2
				C199.3,57.5,199.7,59.1,199.7,61.4 M213.4,60.6c0-5.6-1.5-9.6-4.6-11.8c-3-2.2-8.2-3.3-15.4-3.3c-8.7,0-15.5,0.2-20.2,0.7v50
				h13.4V77.4h6.2c1.4,0,2.5,0.3,3.2,0.8c0.7,0.5,1.2,1.5,1.6,3l3.5,15.1h14.3l-4.1-15.4c-0.9-4.4-3.5-7-7.7-7.7v-0.4
				C210.1,71.9,213.4,67.9,213.4,60.6"/>
		</g>
	</g>
	<g>
		<rect x="227.3" y="46.2" class="st1" width="13.5" height="50"/>
	</g>
	<g>
		<g>
			<path class="st1" d="M280.2,74.5h-10.3l3.2-12.8c0.3-1.6,0.7-3.4,1-5.2h2c0.1,1,0.4,2.7,0.9,5.2L280.2,74.5z M299.6,96.2
				L286,49.8c-0.3-1.1-0.9-1.9-1.7-2.6c-0.8-0.7-1.8-1-2.9-1h-12.6c-1.1,0-2.1,0.3-2.9,1c-0.8,0.7-1.4,1.5-1.6,2.6l-13.7,46.4h13.9
				l3-11.9h15.4l3,11.9H299.6z"/>
		</g>
	</g>
</g>
<g>
	<path class="st0" d="M132.5,120.6c-0.2-2.9-0.3-6.4-0.3-9h-0.1c-0.7,2.4-1.6,5-2.6,7.9l-3.7,10.1h-2l-3.4-9.9
		c-1-2.9-1.8-5.6-2.4-8.1h-0.1c-0.1,2.6-0.2,6.1-0.4,9.2l-0.6,8.9h-2.6l1.5-20.8h3.4l3.6,10.1c0.9,2.6,1.6,4.9,2.1,7h0.1
		c0.5-2.1,1.3-4.4,2.2-7l3.7-10.1h3.4l1.3,20.8H133L132.5,120.6z"/>
	<path class="st0" d="M150.6,120h-8.1v7.5h9v2.3h-11.7v-20.8H151v2.3h-8.6v6.6h8.1V120z"/>
	<path class="st0" d="M155,109.2c1.6-0.2,3.6-0.4,5.7-0.4c3.9,0,6.6,0.9,8.4,2.6c1.9,1.7,2.9,4.1,2.9,7.5c0,3.4-1.1,6.2-3,8.1
		c-1.9,1.9-5.2,3-9.2,3c-1.9,0-3.5-0.1-4.9-0.2V109.2z M157.7,127.6c0.7,0.1,1.7,0.2,2.7,0.2c5.7,0,8.9-3.2,8.9-8.8
		c0-4.9-2.7-8-8.4-8c-1.4,0-2.4,0.1-3.2,0.3V127.6z"/>
	<path class="st0" d="M178.2,108.9v20.8h-2.7v-20.8H178.2z"/>
	<path class="st0" d="M186.3,123.2l-2.2,6.5h-2.8l7.1-20.8h3.2l7.1,20.8h-2.9l-2.2-6.5H186.3z M193.1,121.1l-2-6
		c-0.5-1.4-0.8-2.6-1.1-3.8H190c-0.3,1.2-0.6,2.5-1.1,3.8l-2,6H193.1z"/>
	<path class="st0" d="M224.2,128.8c-1.2,0.4-3.6,1.1-6.4,1.1c-3.2,0-5.7-0.8-7.8-2.7c-1.8-1.7-2.9-4.5-2.9-7.8
		c0-6.2,4.3-10.8,11.3-10.8c2.4,0,4.3,0.5,5.2,1l-0.6,2.2c-1.1-0.5-2.5-0.9-4.6-0.9c-5.1,0-8.4,3.2-8.4,8.4c0,5.3,3.2,8.4,8,8.4
		c1.8,0,3-0.2,3.6-0.6V121h-4.2v-2.2h6.9V128.8z"/>
	<path class="st0" d="M228.4,109.2c1.4-0.3,3.3-0.4,5.2-0.4c2.9,0,4.7,0.5,6,1.7c1.1,0.9,1.6,2.3,1.6,4c0,2.7-1.7,4.6-3.9,5.3v0.1
		c1.6,0.6,2.6,2,3.1,4.2c0.7,2.9,1.2,4.9,1.6,5.7h-2.8c-0.3-0.6-0.8-2.4-1.4-5c-0.6-2.9-1.7-4-4.2-4H231v9h-2.7V109.2z M231,118.7
		h2.7c2.9,0,4.7-1.6,4.7-4c0-2.7-1.9-3.9-4.8-3.9c-1.3,0-2.2,0.1-2.7,0.2V118.7z"/>
	<path class="st0" d="M262.9,119.1c0,7.2-4.4,11-9.7,11c-5.5,0-9.4-4.3-9.4-10.6c0-6.6,4.1-10.9,9.7-10.9
		C259.2,108.6,262.9,112.9,262.9,119.1z M246.7,119.5c0,4.4,2.4,8.4,6.6,8.4c4.3,0,6.7-3.9,6.7-8.7c0-4.1-2.2-8.5-6.6-8.5
		C248.9,110.8,246.7,114.9,246.7,119.5z"/>
	<path class="st0" d="M269,108.9v12.3c0,4.7,2.1,6.6,4.9,6.6c3.1,0,5.1-2,5.1-6.6v-12.3h2.7v12.1c0,6.4-3.4,9-7.9,9
		c-4.3,0-7.5-2.4-7.5-8.9v-12.3H269z"/>
	<path class="st0" d="M286.4,109.2c1.3-0.2,3-0.4,5.2-0.4c2.7,0,4.6,0.6,5.8,1.7c1.1,1,1.8,2.5,1.8,4.4c0,1.9-0.6,3.4-1.6,4.4
		c-1.4,1.5-3.7,2.3-6.4,2.3c-0.8,0-1.5,0-2.2-0.2v8.3h-2.7V109.2z M289,119.2c0.6,0.2,1.3,0.2,2.2,0.2c3.2,0,5.2-1.6,5.2-4.4
		c0-2.7-1.9-4.1-4.9-4.1c-1.2,0-2.1,0.1-2.5,0.2V119.2z"/>
</g>
</svg>
