<?xml version="1.0" encoding="iso-8859-1"?>
<!-- Generator: Adobe Illustrator 19.0.0, SVG Export Plug-In . SVG Version: 6.00 Build 0)  -->
<svg version="1.1" id="Capa_1" xmlns="http://www.w3.org/2000/svg" xmlns:xlink="http://www.w3.org/1999/xlink" x="0px" y="0px"
	 viewBox="0 0 512 512" style="enable-background:new 0 0 512 512;" xml:space="preserve">
<g>
	<g>
		<path d="M454.851,131.837C470.844,118.072,481,97.706,481,75c0-41.355-33.645-75-75-75c-41.355,0-75,33.645-75,75
			c0,0.001,0,0.003,0,0.005C307.373,65.132,281.939,60,256,60c-26.018,0-52.12,5.272-76.003,15.136c0-0.046,0.003-0.091,0.003-0.136
			c0-41.355-33.645-75-75-75C63.645,0,30,33.645,30,75c0,22.789,10.23,43.222,26.323,56.988C22.871,149.566,0,184.66,0,225
			c0,8.284,6.716,15,15,15h45.583C60.201,244.989,60,249.998,60,255c0,79.245,47.18,146.909,112.187,177.531
			C157.8,451.048,150,473.496,150,497c0,8.284,6.716,15,15,15h181c8.284,0,15-6.716,15-15c0-24.31-8.154-46.729-21.837-64.632
			C404.784,401.296,451,333.261,451,255c0-5.002-0.201-10.011-0.583-15H497c8.284,0,15-6.716,15-15
			C512,184.545,488.78,149.365,454.851,131.837z M406,30c24.813,0,45,20.187,45,45s-20.187,45-45,45s-45-20.187-45-45
			S381.187,30,406,30z M105,30c24.813,0,45,20.187,45,45s-20.187,45-45,45S60,99.813,60,75S80.187,30,105,30z M31.507,210
			c6.969-34.191,37.274-60,73.493-60s66.524,25.809,73.493,60H31.507z M181.556,482c7.188-34.305,38.364-61,74.444-61
			c36.289,0,66.642,26.252,73.533,61H181.556z M210,346c0-24.393,21.065-45,46-45c24.813,0,45,20.187,45,45s-20.187,45-45,45
			C231.065,391,210,370.393,210,346z M315.675,409.834c-3.542-2.479-7.241-4.744-11.08-6.776C320.736,389.292,331,368.828,331,346
			c0-41.355-33.645-75-75-75c-41.463,0-76,33.535-76,75c0,20.038,8.022,38.915,22.588,53.153c1.436,1.404,2.929,2.726,4.452,4.002
			c-3.862,2.046-7.611,4.338-11.227,6.871C132.236,385.545,90,324.123,90,255c0-5.006,0.235-10.019,0.685-15H195
			c8.284,0,15-6.716,15-15c0-40.34-22.871-75.434-56.323-93.012c5.892-5.04,10.999-10.968,15.102-17.586
			C194.434,98.66,225.256,90,256,90c30.569,0,60.295,8.44,86.217,24.396c4.104,6.621,9.213,12.551,15.107,17.593
			C323.871,149.566,301,184.66,301,225c0,8.284,6.716,15,15,15h104.315c0.45,4.981,0.685,9.994,0.685,15
			C421,323.945,378.98,385.227,315.675,409.834z M332.507,210c6.969-34.191,37.274-60,73.493-60c36.702,0,67.411,25.809,74.473,60
			H332.507z" fill="#5059AB"/>
	</g>
</g>
<g>
</g>
<g>
</g>
<g>
</g>
<g>
</g>
<g>
</g>
<g>
</g>
<g>
</g>
<g>
</g>
<g>
</g>
<g>
</g>
<g>
</g>
<g>
</g>
<g>
</g>
<g>
</g>
<g>
</g>
</svg>
